<svg width="60" height="60" viewBox="0 0 60 60" fill="none" xmlns="http://www.w3.org/2000/svg">
<path fill-rule="evenodd" clip-rule="evenodd" d="M40.91 21.8181C40.91 24.7114 39.7606 27.4862 37.7148 29.532C35.6689 31.5779 32.8942 32.7272 30.0009 32.7272C27.1076 32.7272 24.3328 31.5779 22.287 29.532C20.2411 27.4862 19.0918 24.7114 19.0918 21.8181C19.0918 18.9249 20.2411 16.1501 22.287 14.1043C24.3328 12.0584 27.1076 10.9091 30.0009 10.9091C32.8942 10.9091 35.6689 12.0584 37.7148 14.1043C39.7606 16.1501 40.91 18.9249 40.91 21.8181ZM35.4554 21.8181C35.4554 23.2648 34.8808 24.6522 33.8578 25.6751C32.8349 26.698 31.4475 27.2727 30.0009 27.2727C28.5543 27.2727 27.1669 26.698 26.1439 25.6751C25.121 24.6522 24.5463 23.2648 24.5463 21.8181C24.5463 20.3715 25.121 18.9841 26.1439 17.9612C27.1669 16.9383 28.5543 16.3636 30.0009 16.3636C31.4475 16.3636 32.8349 16.9383 33.8578 17.9612C34.8808 18.9841 35.4554 20.3715 35.4554 21.8181Z" fill="black"/>
<path fill-rule="evenodd" clip-rule="evenodd" d="M30 0C13.4318 0 0 13.4318 0 30C0 46.5682 13.4318 60 30 60C46.5682 60 60 46.5682 60 30C60 13.4318 46.5682 0 30 0ZM5.45455 30C5.45455 35.7 7.39909 40.9473 10.6582 45.1145C12.947 42.1088 15.8997 39.673 19.2857 37.9972C22.6717 36.3215 26.3993 35.4513 30.1773 35.4545C33.9064 35.451 37.587 36.2987 40.9389 37.933C44.2908 39.5674 47.2254 41.9452 49.5191 44.8855C51.8821 41.7862 53.4732 38.1688 54.1606 34.3325C54.8481 30.4963 54.6121 26.5515 53.4723 22.8245C52.3324 19.0975 50.3215 15.6956 47.6059 12.9001C44.8902 10.1046 41.548 7.99598 37.8556 6.74866C34.1632 5.50134 30.2269 5.1512 26.3723 5.7272C22.5178 6.3032 18.8558 7.7888 15.6894 10.0611C12.5229 12.3333 9.94312 15.3269 8.16335 18.7942C6.38358 22.2614 5.45504 26.1026 5.45455 30ZM30 54.5455C24.3653 54.5539 18.9007 52.6155 14.5309 49.0582C16.2898 46.5402 18.6309 44.4843 21.3551 43.0655C24.0792 41.6467 27.1058 40.9069 30.1773 40.9091C33.2104 40.9067 36.2004 41.6279 38.8989 43.013C41.5974 44.398 43.9265 46.4069 45.6927 48.8727C41.289 52.5456 35.7343 54.5535 30 54.5455Z" fill="black"/>
</svg>
